# xmcd
#
# Track frame offsets:
#	150
#	14377
#	37356
#	58483
#	77361
#	97122
#	122013
#
# Disc length: 1860 seconds
#
# Revision: 0
# Processed by: cddbd v1.5.2PL0 Copyright (c) Steve Scherf et al.
# Submitted via: EZCDAudioConverter 2.0.6.1
#
DISCID=5d074207
DTITLE=JJ Shiplett - Colours
DYEAR=2007
DGENRE=Country
TTITLE0=Brighter Skies (Little Sister)
TTITLE1=Old and Jaded
TTITLE2=Maria of My Heart Tonight
TTITLE3=If the World
TTITLE4=I'm Not Afraid
TTITLE5=You Led Me
TTITLE6=I'll Find My Way Home
EXTD=
EXTT0=
EXTT1=
EXTT2=
EXTT3=
EXTT4=
EXTT5=
EXTT6=
PLAYORDER=
